<?xml version="1.0" standalone="no"?><svg xmlns="http://www.w3.org/2000/svg" viewBox="0 0 1440 320"><path fill="#884a39" fill-opacity="1" d="M0,160L40,181.3C80,203,160,245,240,261.3C320,277,400,267,480,245.3C560,224,640,192,720,186.7C800,181,880,203,960,202.7C1040,203,1120,181,1200,186.7C1280,192,1360,224,1400,240L1440,256L1440,320L1400,320C1360,320,1280,320,1200,320C1120,320,1040,320,960,320C880,320,800,320,720,320C640,320,560,320,480,320C400,320,320,320,240,320C160,320,80,320,40,320L0,320Z"></path></svg>